<?xml version="1.0" encoding="UTF-8"?>
<svg version="1.1" xmlns="http://www.w3.org/2000/svg" width="1104" height="928">
<path d="M0 0 C364.32 0 728.64 0 1104 0 C1104 306.24 1104 612.48 1104 928 C739.68 928 375.36 928 0 928 C0 621.76 0 315.52 0 0 Z " fill="#000000" transform="translate(0,0)"/>
<path d="M0 0 C210.15319149 0 210.15319149 0 236.5625 6.8125 C237.21597412 6.98064209 237.86944824 7.14878418 238.54272461 7.32202148 C239.94703864 7.68441979 241.35075606 8.04913691 242.75390625 8.41601562 C245.16662086 9.04332142 247.58304111 9.65488808 250 10.265625 C251.68762748 10.69741874 253.37512977 11.12970209 255.0625 11.5625 C256.24017944 11.85894409 256.24017944 11.85894409 257.44165039 12.16137695 C262.18270381 13.39294461 266.51073006 15.00707554 271 17 C273.33153181 17.81765525 275.66499716 18.62981044 278 19.4375 C300.72320267 27.75205857 321.8296144 41.1009126 340 57 C340.8353125 57.72574219 341.670625 58.45148438 342.53125 59.19921875 C381.39068328 93.56103244 405.07100636 141.23915119 414 192 C414.15243164 192.84804199 414.30486328 193.69608398 414.46191406 194.56982422 C419.38630031 223.376952 419.52176412 255.29823726 413.60327148 283.93115234 C413.00881211 286.95517271 412.51616342 289.98819977 412.02865601 293.03096008 C410.50433832 302.32804626 408.10159968 311.09208748 405.0625 320 C404.70709641 321.05634644 404.70709641 321.05634644 404.34451294 322.1340332 C395.83149768 347.30153381 383.92473809 371.42039669 367 392 C366.57638184 392.52513184 366.15276367 393.05026367 365.71630859 393.59130859 C354.62042787 407.3328412 342.34405857 419.65944891 328 430 C327.34080566 430.47646973 326.68161133 430.95293945 326.00244141 431.44384766 C307.53115233 444.62521665 287.49191335 454.76872644 266 462 C264.54110352 462.50225098 264.54110352 462.50225098 263.05273438 463.01464844 C248.76057858 467.85906153 234.49407828 471.05469198 219.625 473.4375 C218.8414917 473.5632843 218.0579834 473.6890686 217.25073242 473.81866455 C214.97316308 474.17885083 212.6942687 474.52802283 210.4140625 474.87109375 C209.75753693 474.97174637 209.10101135 475.07239899 208.42459106 475.17610168 C139.66286581 485.12353592 69.47752376 477 0 477 C0 319.59 0 162.18 0 0 Z " fill="#FDFDFC" transform="translate(211,224)"/>
<path d="M0 0 C152.48467103 0 152.48467103 0 198.43408203 45.41748047 C206.14440587 53.17574414 212.37113847 61.63558092 218 71 C218.41636719 71.68884277 218.83273437 72.37768555 219.26171875 73.08740234 C233.36464738 96.89423072 242.02277619 126.10206373 242.203125 153.8828125 C242.21009399 154.61130402 242.21706299 155.33979553 242.22424316 156.09036255 C242.24156255 158.43530106 242.24796555 160.78000014 242.25 163.125 C242.25100708 163.92723999 242.25201416 164.72947998 242.25305176 165.55603027 C242.24201832 178.56575077 241.59090048 191.21416883 239 204 C238.7831958 205.07121094 238.7831958 205.07121094 238.56201172 206.1640625 C237.5747624 210.83463736 236.35777259 215.4234282 235 220 C234.79536133 220.70012207 234.59072266 221.40024414 234.37988281 222.12158203 C227.25532788 246.05646576 215.69328048 266.50137215 199 285 C198.28457031 285.79921875 197.56914062 286.5984375 196.83203125 287.421875 C169.61977725 316.21683046 130.95677029 325.69941128 93 329 C62.31 329 31.62 329 0 329 C0 220.43 0 111.86 0 0 Z " fill="#000000" transform="translate(299,298)"/>
<path d="M0 0 C22.43720036 -0.04691901 44.87439252 -0.08208567 67.31163216 -0.10362434 C77.73186009 -0.11389517 88.15205738 -0.12787435 98.57226562 -0.15087891 C107.66460597 -0.17094222 116.75692409 -0.18374682 125.84928596 -0.18817699 C130.65443608 -0.19076268 135.45952268 -0.19675043 140.26465225 -0.21146011 C187.60920097 -0.35070313 187.60920097 -0.35070313 210.4375 4.375 C212.08745972 4.70697388 212.08745972 4.70697388 213.77075195 5.0456543 C221.9447686 6.71883272 230.03360314 8.49889967 238 11 C238.80872559 11.25056152 239.61745117 11.50112305 240.45068359 11.75927734 C296.68910353 29.47627094 344.43998304 66.5121652 372 119 C374.85728723 124.58331669 377.49150244 130.25241552 380 136 C380.27682617 136.62825684 380.55365234 137.25651367 380.83886719 137.90380859 C384.92807211 147.2882626 387.82732637 156.80530568 390.38867188 166.69506836 C390.81980005 168.32057999 391.2709439 169.9408473 391.73632812 171.55688477 C393.70971009 178.46061494 395.03243304 185.3445553 396.125 192.4375 C396.29386719 193.47970703 396.46273438 194.52191406 396.63671875 195.59570312 C401.368614 225.64510094 400.42329395 257.13207117 395 287 C394.81276367 288.04414062 394.62552734 289.08828125 394.43261719 290.1640625 C390.62810206 310.71764336 384.12459697 330.20554537 375 349 C374.65743164 349.70576172 374.31486328 350.41152344 373.96191406 351.13867188 C368.25437957 362.72395625 361.44863628 373.4608109 354 384 C353.58137695 384.59264648 353.16275391 385.18529297 352.73144531 385.79589844 C326.77256826 422.04478081 288.71871362 446.54520374 247 461 C245.92137695 461.38285156 244.84275391 461.76570313 243.73144531 462.16015625 C235.26115323 465.09243675 226.82587674 467.40871984 218.04492188 469.203125 C216.05151987 469.61437126 214.06535595 470.05222841 212.078125 470.4921875 C184.81687325 476.2894782 157.05484399 476.43645211 129.32691312 476.30418181 C124.61720256 476.28505117 119.90748207 476.28363664 115.19773865 476.28010559 C106.33409948 476.27088945 97.47057522 476.24642173 88.60698599 476.21605712 C78.49281203 476.1821822 68.37863173 476.16594513 58.26441491 476.15097082 C37.50954652 476.119859 16.75478058 476.06730853 -4 476 C-1.47712217 474.06926303 0.78725418 472.5132742 3.73046875 471.30859375 C4.44219238 471.00920898 5.15391602 470.70982422 5.88720703 470.40136719 C6.64630371 470.08329102 7.40540039 469.76521484 8.1875 469.4375 C34.42855954 458.04776352 64.89276412 438.07371559 79.09231567 412.35601807 C82.16075638 406.98886567 84.67865944 402.77959923 90.72528076 400.74890137 C95.1895175 400.14528043 99.62790556 400.31929512 104.1171875 400.484375 C105.78132008 400.49315668 107.44549845 400.49540818 109.10964966 400.49151611 C113.48048198 400.49727138 117.84577271 400.58459382 122.21514893 400.69171143 C126.59618423 400.78771842 130.97746803 400.81752817 135.359375 400.84765625 C137.07352709 400.85983826 138.78767911 400.87202996 140.50183105 400.88423157 C141.33893112 400.88997004 142.17603119 400.8957085 143.03849792 400.90162086 C145.53688631 400.92173171 148.03504581 400.95074348 150.5333252 400.98136902 C188.53548631 401.39021337 226.73469123 392.43528514 256 367 C256.83015625 366.29101562 257.6603125 365.58203125 258.515625 364.8515625 C285.23682876 341.49100093 299.75868004 309.20131119 307 275 C307.28230469 273.82308594 307.56460937 272.64617187 307.85546875 271.43359375 C317.37892494 227.96601476 307.35348763 177.84989465 283.79052734 140.61499023 C279.93643509 134.71095917 275.62567829 129.32355625 271 124 C270.46761719 123.34644531 269.93523437 122.69289063 269.38671875 122.01953125 C265.67338446 117.48546001 261.52778877 113.71068781 257 110 C256.09765625 109.24847656 255.1953125 108.49695313 254.265625 107.72265625 C223.08078054 82.67188652 185.57256987 73.37735252 146.12093353 74.13698769 C141.2221152 74.21875956 136.3224603 74.22913409 131.42307663 74.25208759 C127.14782456 74.27604838 122.8756978 74.32564418 118.6015625 74.4284668 C114.42162055 74.5275805 110.24612839 74.55746068 106.06510162 74.54152489 C104.48773449 74.54762572 102.91024534 74.57816818 101.33388519 74.63485146 C89.4110708 75.04378047 89.4110708 75.04378047 85.37417984 71.62184906 C81.95445534 67.78311125 79.52519254 63.45440259 77 59 C75.85944806 57.51340951 74.6901784 56.04694715 73.4609375 54.6328125 C72.69148804 53.74674316 72.69148804 53.74674316 71.90649414 52.84277344 C71.40110107 52.2759082 70.89570801 51.70904297 70.375 51.125 C69.54246704 50.18188965 69.54246704 50.18188965 68.69311523 49.21972656 C67.1389047 47.47030446 65.57311897 45.73241537 64 44 C63.30261719 43.22914063 62.60523438 42.45828125 61.88671875 41.6640625 C44.97830229 23.92289748 21.88046255 11.44544695 0 1 C0 0.67 0 0.34 0 0 Z " fill="#FDFDFD" transform="translate(533,225)"/>
<path d="M0 0 C0.99 0.33 1.98 0.66 3 1 C5.19379117 1.10380948 7.39062326 1.14647392 9.58683777 1.15821838 C10.59523656 1.16562535 10.59523656 1.16562535 11.62400705 1.17318195 C13.88109008 1.18856418 16.13814465 1.19691951 18.39526367 1.20532227 C20.01145173 1.21490022 21.62763728 1.22491025 23.24382019 1.23532104 C27.63604841 1.26238511 32.02828739 1.28338655 36.42055297 1.30332303 C41.00901109 1.32517331 45.59743598 1.35256669 50.18586731 1.37937927 C58.87682761 1.42931912 67.56780633 1.47425316 76.25880271 1.51740164 C86.15229726 1.56676297 96.04575847 1.62168519 105.93922079 1.67708123 C126.29278281 1.79092111 146.64637665 1.89775579 167 2 C167 2.33 167 2.66 167 3 C110.57 3 54.14 3 -4 3 C-2.68 2.01 -1.36 1.02 0 0 Z " fill="#D6D5D5" transform="translate(533,698)"/>
<path d="M0 0 C0.99 0.33 1.98 0.66 3 1 C5.80160502 1.1539263 8.58298425 1.25738045 11.38671875 1.31640625 C12.61223198 1.3475779 12.61223198 1.3475779 13.86250305 1.37937927 C16.47075034 1.44473079 19.07909775 1.50369273 21.6875 1.5625 C23.45639054 1.60569892 25.22527097 1.64931365 26.99414062 1.69335938 C31.32932463 1.80039743 35.66460929 1.90170544 40 2 C40 2.33 40 2.66 40 3 C25.48 3 10.96 3 -4 3 C-2.68 2.01 -1.36 1.02 0 0 Z " fill="#D3D3D2" transform="translate(533,698)"/>
<path d="M0 0 C3 1 3 1 7 3 C3.37 3 -0.26 3 -4 3 C-2.68 2.01 -1.36 1.02 0 0 Z " fill="#BCBBBC" transform="translate(533,698)"/>
</svg>
