<svg xmlns="http://www.w3.org/2000/svg">
  <defs>
    <!-- astro icon -->
    <symbol id="astro" viewBox="0 0 85 107">
      <path d="M27.5894 91.1365C22.7555 86.7178 21.3444 77.4335 23.3583 70.7072C26.8503 74.948 31.6888 76.2914 36.7005 77.0497C44.4375 78.2199 52.0359 77.7822 59.2232 74.2459C60.0454 73.841 60.8052 73.3027 61.7036 72.7574C62.378 74.714 62.5535 76.6892 62.318 78.6996C61.7452 83.5957 59.3086 87.3778 55.4332 90.2448C53.8835 91.3916 52.2437 92.4167 50.6432 93.4979C45.7262 96.8213 44.3959 100.718 46.2435 106.386C46.2874 106.525 46.3267 106.663 46.426 107C43.9155 105.876 42.0817 104.24 40.6845 102.089C39.2087 99.8193 38.5066 97.3081 38.4696 94.5909C38.4511 93.2686 38.4511 91.9345 38.2733 90.6309C37.8391 87.4527 36.3471 86.0297 33.5364 85.9478C30.6518 85.8636 28.37 87.6469 27.7649 90.4554C27.7187 90.6707 27.6517 90.8837 27.5847 91.1341L27.5894 91.1365Z" fill="#F041FF"/>
      <path d="M0 69.5866C0 69.5866 14.3139 62.6137 28.6678 62.6137L39.4901 29.1204C39.8953 27.5007 41.0783 26.3999 42.4139 26.3999C43.7495 26.3999 44.9325 27.5007 45.3377 29.1204L56.1601 62.6137C73.1601 62.6137 84.8278 69.5866 84.8278 69.5866C84.8278 69.5866 60.5145 3.35233 60.467 3.21944C59.7692 1.2612 58.5911 0 57.0029 0H27.8274C26.2392 0 25.1087 1.2612 24.3634 3.21944C24.3108 3.34983 0 69.5866 0 69.5866Z" fill="currentColor"/>
    </symbol>

    <!-- javascript icon -->
    <symbol id="javascript" viewBox="0 0 630 630">
      <rect width="630" height="630" fill="#f7df1e"/>
      <path fill="black" d="m423.2 492.19c12.69 20.72 29.2 35.95 58.4 35.95 24.53 0 40.2-12.26 40.2-29.2 0-20.3-16.1-27.49-43.1-39.3l-14.8-6.35c-42.72-18.2-71.1-41-71.1-89.2 0-44.4 33.83-78.2 86.7-78.2 37.64 0 64.7 13.1 84.2 47.4l-46.1 29.6c-10.15-18.2-21.1-25.37-38.1-25.37-17.34 0-28.33 11-28.33 25.37 0 17.76 11 24.95 36.4 35.95l14.8 6.34c50.3 21.57 78.7 43.56 78.7 93 0 53.3-41.87 82.5-98.1 82.5-54.98 0-90.5-26.2-107.88-60.54zm-209.13 5.13c9.3 16.5 17.76 30.45 38.1 30.45 19.45 0 31.72-7.61 31.72-37.2v-201.3h59.2v202.1c0 61.3-35.94 89.2-88.4 89.2-47.4 0-74.85-24.53-88.81-54.075z"/>
    </symbol>

    <!-- typescript icon -->
    <symbol id="typescript" fill="none" viewBox="0 0 512 512">
      <rect fill="#3178c6" height="512" rx="50" width="512"/>
      <rect fill="#3178c6" height="512" rx="50" width="512"/>
      <path clip-rule="evenodd" fill="#fff" fill-rule="evenodd" d="m316.939 407.424v50.061c8.138 4.172 17.763 7.3 28.875 9.386s22.823 3.129 35.135 3.129c11.999 0 23.397-1.147 34.196-3.442 10.799-2.294 20.268-6.075 28.406-11.342 8.138-5.266 14.581-12.15 19.328-20.65s7.121-19.007 7.121-31.522c0-9.074-1.356-17.026-4.069-23.857s-6.625-12.906-11.738-18.225c-5.112-5.319-11.242-10.091-18.389-14.315s-15.207-8.213-24.18-11.967c-6.573-2.712-12.468-5.345-17.685-7.9-5.217-2.556-9.651-5.163-13.303-7.822-3.652-2.66-6.469-5.476-8.451-8.448-1.982-2.973-2.974-6.336-2.974-10.091 0-3.441.887-6.544 2.661-9.308s4.278-5.136 7.512-7.118c3.235-1.981 7.199-3.52 11.894-4.615 4.696-1.095 9.912-1.642 15.651-1.642 4.173 0 8.581.313 13.224.938 4.643.626 9.312 1.591 14.008 2.894 4.695 1.304 9.259 2.947 13.694 4.928 4.434 1.982 8.529 4.276 12.285 6.884v-46.776c-7.616-2.92-15.937-5.084-24.962-6.492s-19.381-2.112-31.066-2.112c-11.895 0-23.163 1.278-33.805 3.833s-20.006 6.544-28.093 11.967c-8.086 5.424-14.476 12.333-19.171 20.729-4.695 8.395-7.043 18.433-7.043 30.114 0 14.914 4.304 27.638 12.912 38.172 8.607 10.533 21.675 19.45 39.204 26.751 6.886 2.816 13.303 5.579 19.25 8.291s11.086 5.528 15.415 8.448c4.33 2.92 7.747 6.101 10.252 9.543 2.504 3.441 3.756 7.352 3.756 11.733 0 3.233-.783 6.231-2.348 8.995s-3.939 5.162-7.121 7.196-7.147 3.624-11.894 4.771c-4.748 1.148-10.303 1.721-16.668 1.721-10.851 0-21.597-1.903-32.24-5.71-10.642-3.806-20.502-9.516-29.579-17.13zm-84.159-123.342h64.22v-41.082h-179v41.082h63.906v182.918h50.874z"/>
    </symbol>

    <!-- tailwind icon -->
    <symbol id="tailwind" viewBox="0 0 47 40" fill="none">
      <path fill="#6366f1" d="M23.5 6.5C17.5 6.5 13.75 9.5 12.25 15.5C14.5 12.5 17.125 11.375 20.125 12.125C21.8367 12.5529 23.0601 13.7947 24.4142 15.1692C26.6202 17.4084 29.1734 20 34.75 20C40.75 20 44.5 17 46 11C43.75 14 41.125 15.125 38.125 14.375C36.4133 13.9471 35.1899 12.7053 33.8357 11.3308C31.6297 9.09158 29.0766 6.5 23.5 6.5ZM12.25 20C6.25 20 2.5 23 1 29C3.25 26 5.875 24.875 8.875 25.625C10.5867 26.0529 11.8101 27.2947 13.1642 28.6693C15.3702 30.9084 17.9234 33.5 23.5 33.5C29.5 33.5 33.25 30.5 34.75 24.5C32.5 27.5 29.875 28.625 26.875 27.875C25.1633 27.4471 23.9399 26.2053 22.5858 24.8307C20.3798 22.5916 17.8266 20 12.25 20Z"/>
    </symbol>

    <!-- flutter icon -->
    <symbol id="flutter" viewBox="0 0 24 24">
      <path fill="#02569B" d="M14.314 0L3.098 11.216l3.228 3.228L19.694 0h-5.38zM14.314 11.893L8.666 17.541l3.229 3.229 2.418-2.418 5.38-5.38-2.15-2.15-3.229 3.229z"/>
      <path fill="#13B9FD" d="M8.666 17.541l3.229 3.229L14.314 24h5.38l-7.8-7.8z"/>
    </symbol>

    <!-- react icon -->
    <symbol id="react" viewBox="0 0 24 24">
      <circle cx="12" cy="12" r="2.139" fill="#61DAFB"/>
      <ellipse cx="12" cy="12" rx="11" ry="4.222" fill="none" stroke="#61DAFB" stroke-width="1"/>
      <ellipse cx="12" cy="12" rx="11" ry="4.222" fill="none" stroke="#61DAFB" stroke-width="1" transform="rotate(60 12 12)"/>
      <ellipse cx="12" cy="12" rx="11" ry="4.222" fill="none" stroke="#61DAFB" stroke-width="1" transform="rotate(120 12 12)"/>
    </symbol>

    <!-- python icon -->
    <symbol id="python" viewBox="0 0 24 24">
      <path fill="#3776AB" d="M11.914 0C5.82 0 6.2 2.656 6.2 2.656l.007 2.752h5.814v.826H3.9S0 5.789 0 11.969c0 6.18 3.403 5.96 3.403 5.96h2.03v-2.868s-.109-3.403 3.35-3.403h5.766s3.24.052 3.24-3.133V3.195S18.295 0 11.914 0zM8.708 1.845a1.052 1.052 0 1 1 0 2.103 1.052 1.052 0 0 1 0-2.103z"/>
      <path fill="#FFD43B" d="M12.086 24c6.094 0 5.714-2.656 5.714-2.656l-.007-2.752h-5.814v-.826h8.121S24 18.211 24 12.031c0-6.18-3.403-5.96-3.403-5.96h-2.03v2.868s.109 3.403-3.35 3.403H9.451s-3.24-.052-3.24 3.133v5.33S5.705 24 12.086 24zm3.206-1.845a1.052 1.052 0 1 1 0-2.103 1.052 1.052 0 0 1 0 2.103z"/>
    </symbol>

    <!-- nextjs icon -->
    <symbol id="nextjs" viewBox="0 0 24 24">
      <path fill="currentColor" d="M11.572 0c-.176 0-.31.001-.358.007a19.76 19.76 0 0 1-.364.033C7.443.346 4.25 2.185 2.228 5.012a11.875 11.875 0 0 0-2.119 5.243c-.096.66-.108.854-.108 1.747s.012 1.089.108 1.748c.652 4.506 3.86 8.292 8.209 9.695.779.25 1.6.422 2.534.525.363.04 1.935.04 2.299 0 1.611-.178 2.977-.577 4.323-1.264.207-.106.247-.134.219-.158-.02-.013-.9-1.193-1.955-2.62l-1.919-2.592-2.404-3.558a338.739 338.739 0 0 0-2.422-3.556c-.009-.002-.018 1.579-.023 3.51-.007 3.38-.01 3.515-.052 3.595a.426.426 0 0 1-.206.214c-.075.037-.14.044-.495.044H7.81l-.108-.068a.438.438 0 0 1-.157-.171l-.05-.106.006-4.703.007-4.705.073-.091a.637.637 0 0 1 .174-.143c.096-.047.134-.051.54-.051.478 0 .558.018.682.154.035.038 1.337 1.999 2.895 4.361a10760.433 10760.433 0 0 0 4.735 7.17l1.9 2.878.096-.063a12.317 12.317 0 0 0 2.466-2.163 11.944 11.944 0 0 0 2.824-6.134c.096-.66.108-.854.108-1.748 0-.893-.012-1.088-.108-1.747-.652-4.506-3.86-8.292-8.208-9.695a12.597 12.597 0 0 0-2.499-.523A33.119 33.119 0 0 0 11.572 0zm4.069 7.217c.347 0 .408.005.486.047a.473.473 0 0 1 .237.277c.018.06.023 1.365.018 4.304l-.006 4.218-.744-1.14-.746-1.14v-3.066c0-1.982.01-3.097.023-3.15a.478.478 0 0 1 .233-.296c.096-.05.13-.054.5-.054z"/>
    </symbol>

    <!-- matlab icon -->
    <symbol id="matlab" viewBox="0 0 32 32">
      <defs>
        <linearGradient id="matlab-grad-a" x1="16.803" y1="16.631" x2="15.013" y2="22.411" gradientTransform="matrix(1, 0, 0, -1, 0, 32)" gradientUnits="userSpaceOnUse">
          <stop offset="0" stop-color="#512"/>
          <stop offset="0.23" stop-color="#523"/>
          <stop offset="0.36" stop-color="#534"/>
          <stop offset="0.51" stop-color="#645"/>
          <stop offset="0.66" stop-color="#568"/>
          <stop offset="0.84" stop-color="#29d"/>
        </linearGradient>
        <linearGradient id="matlab-grad-b" x1="29.71" y1="18.983" x2="11.71" y2="14.563" gradientUnits="userSpaceOnUse">
          <stop offset="0.081" stop-color="#c33"/>
          <stop offset="0.189" stop-color="#de5239"/>
          <stop offset="0.313" stop-color="#f06e3e"/>
          <stop offset="0.421" stop-color="#fa8042"/>
          <stop offset="0.5" stop-color="#fe8643"/>
          <stop offset="0.58" stop-color="#fa7f42"/>
          <stop offset="0.696" stop-color="#ef6c3e"/>
          <stop offset="0.833" stop-color="#dc4c37"/>
          <stop offset="0.916" stop-color="#cf3633"/>
        </linearGradient>
      </defs>
      <path d="M2,17.55l7.97-3.22a20.7,20.7,0,0,1,2.72-2.95c.66-.35,1.9-.16,4.17-2.98,2.2-2.75,2.9-5.1,3.93-5.1,1.63,0,2.83,3.52,4.65,8.85A115.629,115.629,0,0,0,30,24.12c-1.9-1.77-3.52-3.68-5.37-3.63-1.72.04-3.63,2.08-5.72,4.7-1.66,2.1-3.86,3.54-4.72,3.51,0,0-2.22-6.28-4.08-7.3a2.641,2.641,0,0,0-2.39.2L2,17.54Z" fill="#49d"/>
      <path d="M19.8,4.02c-.67.9-1.48,2.55-2.94,4.38-2.27,2.82-3.5,2.63-4.17,2.98a19.674,19.674,0,0,0-2.72,2.95l3.3,2.41c2.8-3.82,4.3-7.96,5.47-10.64A13.579,13.579,0,0,1,19.8,4.02Z" fill="url(#matlab-grad-a)"/>
      <path d="M20.8,3.3c-2.18,0-3.67,11.48-11.72,17.89,2.26-.37,4.22,5.24,5.12,7.51,4-.68,7.2-8.33,10.43-8.21,1.85.07,3.47,1.86,5.37,3.63C25.66,15,23.63,3.3,20.8,3.3Z" fill="url(#matlab-grad-b)"/>
    </symbol>

    <!-- numpy/scipy icon -->
    <symbol id="numpy" viewBox="0 0 256 280">
      <path xmlns="http://www.w3.org/2000/svg" d="M191.54779,186.292389 L191.607285,246.81213 L137.903038,273.611369 L137.903038,213.11807 L191.54779,186.292389 Z M256.000818,153.946885 L256.000818,214.678164 L210.196199,237.537504 L210.163146,177.083869 L256.000818,153.946885 Z M191.468463,105.286501 L191.527958,165.171627 L137.903038,191.818823 L137.903038,131.913865 L191.468463,105.286501 Z M256.000818,73.2054191 L256.000818,132.713743 L210.149925,156.022603 L210.110262,96.0184858 L256.000818,73.2054191 Z M129.738988,66.1651652 L177.67221,90.3598405 L127.940914,115.334563 L80.9133402,91.7150067 L129.738988,66.1651652 Z M63.0648093,32.5107686 L108.783491,55.588258 L59.8454631,81.1314889 L12.8906057,57.5515964 L63.0648093,32.5107686 Z M193.755719,32.8611286 L242.997833,57.5515964 L198.958235,79.6705536 L150.925855,55.4428255 L193.755719,32.8611286 Z M128.231779,3.55271368e-15 L172.562241,22.2247263 L130.056295,44.9188028 L84.3772773,21.8809768 L128.231779,3.55271368e-15 Z" fill="#4DABCF"/>
      <path xmlns="http://www.w3.org/2000/svg" d="M118.943932,131.913865 L82.7709095,113.728195 L82.7709095,192.334447 C82.7709095,192.334447 38.5329951,98.2065835 34.4344436,89.7516683 C33.9055982,88.6609247 31.7307216,87.4644121 31.175434,87.1735472 C23.2427536,83.0088899 0,71.2354701 0,71.2354701 L0,210.110262 L32.1537979,227.297736 L32.1537979,154.7071 C32.1537979,154.7071 75.9223621,238.813344 76.3652701,239.732213 C76.8081781,240.651081 81.2042052,249.515852 85.8977077,252.629429 C92.1513041,256.767644 118.950543,272.884206 118.950543,272.884206 L118.943932,131.913865 Z" fill="#4D77CF"/>
    </symbol>

    <!-- java icon -->
    <symbol id="java" viewBox="0 0 512 512">
      <path xmlns="http://www.w3.org/2000/svg" style="fill:#DB380E;" d="M253.464,94.869c-23.658,16.639-50.471,35.498-64.838,66.699   c-24.954,54.435,51.062,113.812,54.311,116.313c0.755,0.581,1.659,0.871,2.56,0.871c0.957,0,1.915-0.327,2.693-0.979   c1.509-1.262,1.937-3.406,1.031-5.152c-0.275-0.53-27.561-53.53-26.547-91.552c0.359-13.243,18.892-28.266,38.512-44.171   c17.97-14.568,38.34-31.079,50.258-50.394c26.164-42.516-2.916-84.322-3.213-84.74c-1.155-1.622-3.287-2.209-5.11-1.41   c-1.821,0.804-2.83,2.773-2.414,4.72c0.059,0.277,5.714,27.923-10.022,56.406C284.203,73.25,269.959,83.268,253.464,94.869z"/>
      <path xmlns="http://www.w3.org/2000/svg" style="fill:#DB380E;" d="M353.137,113.617c1.669-1.257,2.159-3.55,1.15-5.38c-1.011-1.83-3.211-2.637-5.165-1.895   c-4.019,1.528-98.416,37.915-98.416,81.88c0,30.307,12.946,46.317,22.399,58.009c3.708,4.586,6.909,8.546,7.964,11.927   c2.97,9.743-4.066,27.353-7.025,33.317c-0.853,1.714-0.435,3.792,1.016,5.044c0.784,0.677,1.763,1.021,2.743,1.021   c0.834,0,1.672-0.248,2.396-0.752c1.623-1.128,39.667-28.026,32.844-60.433c-2.542-12.318-8.595-21.318-13.936-29.26   c-8.274-12.305-14.25-21.193-5.184-37.609C304.545,150.338,352.65,113.981,353.137,113.617z"/>
      <path xmlns="http://www.w3.org/2000/svg" style="fill:#73A1FB;" d="M107.418,298.236c-1.618,4.845-0.854,9.651,2.207,13.903c10.233,14.207,46.48,22.029,102.068,22.029   c0.003,0,0.005,0,0.007,0c7.532,0,15.484-0.148,23.629-0.44c88.875-3.181,121.839-30.869,123.199-32.046   c1.482-1.283,1.878-3.419,0.957-5.147c-0.922-1.727-2.909-2.595-4.808-2.072c-31.301,8.546-89.748,11.58-130.288,11.58   c-45.363,0-68.465-3.268-74.121-5.681c2.902-3.985,20.802-11.101,42.983-15.464c2.12-0.416,3.577-2.374,3.367-4.524   s-2.016-3.79-4.177-3.79C179.439,276.584,114.234,277.628,107.418,298.236z"/>
      <path xmlns="http://www.w3.org/2000/svg" style="fill:#73A1FB;" d="M404.812,269.718c-18.331,0-35.714,9.188-36.446,9.577c-1.695,0.908-2.555,2.852-2.09,4.72   c0.467,1.865,2.144,3.176,4.067,3.178c0.389,0,39.102,0.317,42.608,22.436c3.106,19.082-36.629,50-52.202,60.304   c-1.682,1.113-2.335,3.263-1.554,5.123c0.665,1.583,2.206,2.573,3.868,2.573c0.29,0,0.584-0.03,0.876-0.092   c3.696-0.791,90.406-19.899,81.238-70.384C439.584,276.213,420.138,269.718,404.812,269.718z"/>
      <path xmlns="http://www.w3.org/2000/svg" style="fill:#73A1FB;" d="M345.347,363.755c0.302-1.617-0.371-3.262-1.717-4.207l-20.791-14.563   c-1.014-0.71-2.295-0.933-3.485-0.618c-0.217,0.055-21.959,5.771-53.525,9.276c-12.528,1.405-26.56,2.147-40.582,2.147   c-31.558,0-52.192-3.708-55.197-6.428c-0.398-0.764-0.272-1.111-0.201-1.304c0.546-1.518,3.472-3.322,5.358-4.036   c2.083-0.771,3.206-3.033,2.558-5.157c-0.646-2.127-2.837-3.378-4.999-2.859c-20.856,5.033-31.054,12.071-30.312,20.918   c1.318,15.686,37.65,23.737,68.365,25.865c4.417,0.302,9.194,0.455,14.195,0.455c0.003,0,0.005,0,0.008,0   c51.074,0,116.55-16.025,117.204-16.188C343.825,366.666,345.044,365.375,345.347,363.755z"/>
      <path xmlns="http://www.w3.org/2000/svg" style="fill:#73A1FB;" d="M188.602,397.419c1.575-1.024,2.273-2.971,1.714-4.764c-0.557-1.793-2.234-2.971-4.118-2.946   c-2.795,0.074-27.349,1.182-29.068,16.815c-0.52,4.672,0.818,8.941,3.979,12.686c8.816,10.448,32.614,16.658,72.741,18.984   c4.747,0.285,9.569,0.428,14.334,0.428c51.015,0,85.373-15.973,86.812-16.653c1.395-0.66,2.315-2.031,2.397-3.571   s-0.687-3.001-2.003-3.806l-26.275-16.04c-0.912-0.556-2.003-0.74-3.043-0.527c-0.166,0.035-16.849,3.495-42.026,6.913   c-4.764,0.648-10.73,0.977-17.73,0.977c-25.15,0-53.124-4.109-58.489-6.8C187.749,398.613,187.848,397.975,188.602,397.419z"/>
      <path xmlns="http://www.w3.org/2000/svg" style="fill:#73A1FB;" d="M224.408,486.85c116.854-0.099,179.571-20.88,191.653-33.957c4.277-4.626,4.739-9.006,4.376-11.867   c-0.898-7.04-7.311-11.35-8.038-11.818c-1.754-1.128-4.108-0.833-5.476,0.745c-1.365,1.578-1.397,3.884-0.027,5.461   c0.737,0.948,1.163,2.535-0.992,4.692c-4.83,4.511-53.545,18.204-134.656,22.318c-11.111,0.577-22.765,0.871-34.636,0.873   c-72.623,0-125.772-9.948-132.749-15.744c2.689-3.864,21.489-10.037,41.482-13.529c2.253-0.393,3.775-2.516,3.426-4.776   c-0.349-2.259-2.432-3.814-4.709-3.519c-0.564,0.077-2.478,0.191-4.694,0.327c-32.988,2.014-71.109,6.503-73.098,23.5   c-0.604,5.179,0.935,9.881,4.576,13.973c8.909,10.01,34.516,23.319,153.558,23.319C224.406,486.85,224.406,486.85,224.408,486.85z"/>
      <path xmlns="http://www.w3.org/2000/svg" style="fill:#73A1FB;" d="M439.013,456.578c-1.652-0.764-3.604-0.378-4.836,0.952c-0.171,0.185-17.74,18.556-70.564,29.344   c-20.223,4.052-58.183,6.107-112.826,6.107c-54.745,0-106.838-2.154-107.357-2.176c-2.176-0.106-4.037,1.476-4.333,3.618   c-0.297,2.14,1.083,4.158,3.184,4.658c0.542,0.128,55.135,12.918,129.779,12.918c35.801,0,70.639-2.907,103.548-8.645   c61.361-10.757,65.657-41.183,65.81-42.473C441.632,459.078,440.662,457.342,439.013,456.578z"/>
    </symbol>

    <!-- latex icon -->
    <symbol id="latex" viewBox="0 0 40 40">
      <path fill="#00838f" d="M22.55,18.294c1.264,1.867,4.069,1.642,5.031-0.398C28.678,15.573,30.052,13.28,34,14 c2.201,0.402,3,3,3,3l11,2.003c0,0-9.312-0.307-11.382,0.727c0,0-0.285,2.32-3.858,5.571c-1.082,0.985,0.384,7.416-5.363,9.593 c-6.879,3.164-6.994,1.64-16.256,7.106c0,0,1.689-1.648-1.454-1.419c0,0,3.436-1.947-0.851-1.249c0,0,2.632-1.615-0.511-2.429 c0,0,7.143-1.867,8.948-3.444c0.462-0.404,0.837-1.716,1.155-2.823l-3.539,3.58c0,0,0,0,0-1.035c0-1.035-1.801,1.657-1.801,1.657 l-0.268-1.657L9.715,35.88c0,0-0.271-1.388,0.379-2.574l-3.484,1.945c0,0,0.497-2.459,1.591-3.123l-2.63,1.224 c0,0,0.195-1.68,1.04-2.24l-2.299,0.779c0,0,0.007-1.287,1.041-2.322l-1.807,0.634c0,0,0.359-1.783,1.137-2.035l-1.707,0.316 c0,0,0.3-1.696,1.551-2.321l-2.289,0.45c0,0,0.35-1.851,2.088-2.526L1.7,24.164c0,0,1.351-1.963,2.739-2.163l-3.051,0.138 c0,0,1.163-1.613,2.076-1.851L1,20.187c0,0,0.725-1.301,1.851-1.663L1,18.436c0,0,0.588-1.238,1.688-1.563L1,16.523 c0,0,1.501-1.426,2.489-1.413l-2.351-0.45c0,0,1.025-1.563,3.151-1.463l-2.226-1.038c0,0,1.413-1.088,3.639-0.65L3.213,10.02 c0,0,1.576-1.075,3.727-0.263L4.426,7.807c0,0,1.163-0.625,2.288-0.163L6,5C14.889,8.232,19.79,14.217,22.55,18.294z"/>
      <circle cx="32.779" cy="17" r="1.061" fill="#00c853"/>
      <circle cx="32.779" cy="17" r="1.061" fill="none" stroke="#fff" stroke-linecap="round" stroke-linejoin="round" stroke-miterlimit="10" stroke-width=".25"/>
      <path fill="none" stroke="#fff" stroke-linecap="round" stroke-linejoin="round" stroke-miterlimit="10" stroke-width=".25" d="M37,17c0,0-1.997,0.64-3.16,0.414"/>
      <path fill="none" stroke="#fff" stroke-linecap="round" stroke-linejoin="round" stroke-miterlimit="10" stroke-width=".25" d="M6.715,7.644c0,0,6.755,3.804,8.183,5.417"/>
      <path fill="none" stroke="#fff" stroke-linecap="round" stroke-linejoin="round" stroke-miterlimit="10" stroke-width=".25" d="M6.94,9.757c0,0,7.037,3.408,8.401,5.335"/>
      <path fill="none" stroke="#fff" stroke-linecap="round" stroke-linejoin="round" stroke-miterlimit="10" stroke-width=".25" d="M5.702,11.508c0,0,5.64,1.302,9.195,5.274"/>
      <path fill="none" stroke="#fff" stroke-linecap="round" stroke-linejoin="round" stroke-miterlimit="10" stroke-width=".25" d="M4.289,13.196c0,0,6.045,0.91,10.101,5.344"/>
      <path fill="none" stroke="#fff" stroke-linecap="round" stroke-linejoin="round" stroke-miterlimit="10" stroke-width=".25" d="M3.489,15.11c0,0,5.964,0.757,10.273,4.688"/>
      <path fill="none" stroke="#fff" stroke-linecap="round" stroke-linejoin="round" stroke-miterlimit="10" stroke-width=".25" d="M2.688,16.873c0,0,4.343-0.912,10.664,4.466"/>
      <path fill="none" stroke="#fff" stroke-linecap="round" stroke-linejoin="round" stroke-miterlimit="10" stroke-width=".25" d="M2.851,18.524c0,0,4.715-0.644,9.527,3.696"/>
      <path fill="none" stroke="#fff" stroke-linecap="round" stroke-linejoin="round" stroke-miterlimit="10" stroke-width=".25" d="M3.464,20.287c0,0,3.609-0.803,7.677,2.53"/>
      <path fill="none" stroke="#fff" stroke-linecap="round" stroke-linejoin="round" stroke-miterlimit="10" stroke-width=".25" d="M4.439,22c0,0,2.75-0.458,5.328,1.61"/>
      <path fill="none" stroke="#fff" stroke-linecap="round" stroke-linejoin="round" stroke-miterlimit="10" stroke-width=".25" d="M4.326,24.089c0,0,1.188-1.177,4.298,0.17"/>
      <path fill="none" stroke="#fff" stroke-linecap="round" stroke-linejoin="round" stroke-miterlimit="10" stroke-width=".25" d="M4.527,26.164c0,0,1.045-1.266,3.944-0.65"/>
      <path fill="none" stroke="#fff" stroke-linecap="round" stroke-linejoin="round" stroke-miterlimit="10" stroke-width=".25" d="M4.683,28.169c0,0,1.664-2.175,5.751-1.559"/>
      <path fill="none" stroke="#fff" stroke-linecap="round" stroke-linejoin="round" stroke-miterlimit="10" stroke-width=".25" d="M5.353,29.569c0,0,1.951-2.114,5.787-1.863"/>
      <path fill="none" stroke="#fff" stroke-linecap="round" stroke-linejoin="round" stroke-miterlimit="10" stroke-width=".25" d="M6.611,31.112c0,0,1.677-2.63,5.603-2.699"/>
      <path fill="none" stroke="#fff" stroke-linecap="round" stroke-linejoin="round" stroke-miterlimit="10" stroke-width=".25" d="M8.202,32.128c0,0,0.721-2.346,4.547-2.757"/>
      <path fill="none" stroke="#fff" stroke-linecap="round" stroke-linejoin="round" stroke-miterlimit="10" stroke-width=".25" d="M10.095,33.307c0,0,1.962-2.661,3.95-3.028"/>
      <path fill="none" stroke="#fff" stroke-linecap="round" stroke-linejoin="round" stroke-miterlimit="10" stroke-width=".25" d="M12.82,33.182c0,0,0.966-2.143,2.479-2.069"/>
      <path fill="none" stroke="#fff" stroke-linecap="round" stroke-linejoin="round" stroke-miterlimit="10" stroke-width=".25" d="M31.871,17.692c0,0-0.767,0.278-1.584,0.148c0,0,0.119,0.781-0.884,1.319c0,0,1.133,1.337-0.576,1.82c0,0-0.13,0.724-0.891,0.984 c0,0-0.019,1.207,1.337,0.947c0,0-0.111,1.456,1.467,1.09c0,0,0.546,1.626,1.898,1.456"/>
      <path fill="none" stroke="#fff" stroke-linecap="round" stroke-linejoin="round" stroke-miterlimit="10" stroke-width=".25" d="M36.618,19.73c0,0-1.656-1.038-1.338-2.342"/>
    </symbol>

    <!-- microsoft office icon -->
    <symbol id="office" viewBox="0 0 64 64">
      <defs>
        <style>
          .office-cls-1{isolation:isolate;}
          .office-cls-2{opacity:0.2;}
          .office-cls-2,.office-cls-3,.office-cls-5{mix-blend-mode:multiply;}
          .office-cls-4{fill:#fff;}
          .office-cls-5{opacity:0.12;}
          .office-cls-6{fill:url(#office-lg1);}
          .office-cls-7{fill:url(#office-lg2);}
          .office-cls-8{fill:url(#office-lg3);}
          .office-cls-9{fill:url(#office-lg4);}
          .office-cls-10{fill:url(#office-lg5);}
          .office-cls-11{fill:none;}
        </style>
        <linearGradient id="office-lg1" x1="45.2" y1="-1.42" x2="45.2" y2="57.8" gradientUnits="userSpaceOnUse">
          <stop offset="0" stop-color="#ffb900"/>
          <stop offset="0.17" stop-color="#ef8400"/>
          <stop offset="0.31" stop-color="#e25c01"/>
          <stop offset="0.43" stop-color="#db4401"/>
          <stop offset="0.5" stop-color="#d83b01"/>
        </linearGradient>
        <linearGradient id="office-lg2" x1="34.52" y1="0.67" x2="3.16" y2="45.45" gradientUnits="userSpaceOnUse">
          <stop offset="0" stop-color="#800600"/>
          <stop offset="0.6" stop-color="#c72127"/>
          <stop offset="0.73" stop-color="#c13959"/>
          <stop offset="0.85" stop-color="#bc4b81"/>
          <stop offset="0.94" stop-color="#b95799"/>
          <stop offset="1" stop-color="#b85ba2"/>
        </linearGradient>
        <linearGradient id="office-lg3" x1="18.5" y1="55.63" x2="59.44" y2="55.63" gradientUnits="userSpaceOnUse">
          <stop offset="0" stop-color="#f32b44"/>
          <stop offset="0.6" stop-color="#a4070a"/>
        </linearGradient>
        <linearGradient id="office-lg4" x1="35.16" y1="-0.24" x2="28.52" y2="9.24" gradientUnits="userSpaceOnUse">
          <stop offset="0" stop-opacity="0.4"/>
          <stop offset="1" stop-opacity="0"/>
        </linearGradient>
        <linearGradient id="office-lg5" x1="46.32" y1="56.55" x2="27.99" y2="54.95" gradientUnits="userSpaceOnUse">
          <stop offset="0" stop-opacity="0.4"/>
          <stop offset="1" stop-opacity="0"/>
        </linearGradient>
      </defs>
      <g class="office-cls-1">
        <g id="Icons_Color" data-name="Icons - Color">
          <g id="Desktop_Full_Bleed" data-name="Desktop - Full Bleed">
            <g class="office-cls-2">
              <path class="office-cls-4" d="M19.93,49a3.22,3.22,0,0,0-1.59,6L29.7,61.44a6.2,6.2,0,0,0,3.07.81A6,6,0,0,0,34.48,62l17.09-4.87A6.12,6.12,0,0,0,56,51.26V49Z"/>
            </g>
            <g class="office-cls-5">
              <path class="office-cls-4" d="M19.93,49a3.22,3.22,0,0,0-1.59,6L29.7,61.44a6.2,6.2,0,0,0,3.07.81A6,6,0,0,0,34.48,62l17.09-4.87A6.12,6.12,0,0,0,56,51.26V49Z"/>
            </g>
            <path class="office-cls-6" d="M34.41,2,39,12.5V49L34.48,62l17.09-4.87A6.12,6.12,0,0,0,56,51.26V12.74a6.11,6.11,0,0,0-4.44-5.88Z"/>
            <path class="office-cls-7" d="M12.74,48.61l5-2.7A4.36,4.36,0,0,0,20,42.08V22.43a4.37,4.37,0,0,1,2.87-4.1L39,12.5V8.07A6.32,6.32,0,0,0,34.41,2a6.18,6.18,0,0,0-1.73-.24h0a6.41,6.41,0,0,0-3.14.83L11.08,13.12A6.1,6.1,0,0,0,8,18.42V45.78A3.21,3.21,0,0,0,12.74,48.61Z"/>
            <path class="office-cls-8" d="M39,49H19.93a3.22,3.22,0,0,0-1.59,6L29.7,61.44a6.2,6.2,0,0,0,3.07.81h0A6,6,0,0,0,34.48,62,6.22,6.22,0,0,0,39,56Z"/>
            <path class="office-cls-9" d="M12.74,48.61l5-2.7A4.36,4.36,0,0,0,20,42.08V22.43a4.37,4.37,0,0,1,2.87-4.1L39,12.5V8.07A6.32,6.32,0,0,0,34.41,2a6.18,6.18,0,0,0-1.73-.24h0a6.41,6.41,0,0,0-3.14.83L11.08,13.12A6.1,6.1,0,0,0,8,18.42V45.78A3.21,3.21,0,0,0,12.74,48.61Z"/>
            <path class="office-cls-10" d="M39,49H19.93a3.22,3.22,0,0,0-1.59,6L29.7,61.44a6.2,6.2,0,0,0,3.07.81h0A6,6,0,0,0,34.48,62,6.22,6.22,0,0,0,39,56Z"/>
            <rect class="office-cls-11" width="64" height="64"/>
          </g>
        </g>
      </g>
    </symbol>

    <!-- git icon -->
    <symbol id="git" viewBox="0 0 100 100">
      <path fill="#DE4C36" d="M98.1141 45.5449L54.4531 1.88633C51.9402 -0.628125 47.8621 -0.628125 45.3461 1.88633L36.2797 10.9527L47.7809 22.4539C50.4535 21.5508 53.5184 22.1566 55.6488 24.2871C57.7894 26.4312 58.391 29.5223 57.466 32.2035L68.55 43.2879C71.2316 42.3641 74.3258 42.9617 76.4676 45.107C79.4609 48.0992 79.4609 52.9488 76.4676 55.943C73.4734 58.9375 68.6238 58.9375 65.6281 55.943C63.3766 53.6891 62.8203 50.3824 63.9602 47.6086L53.6234 37.2719L53.6223 64.4738C54.3716 64.8443 55.056 65.3337 55.6488 65.923C58.6422 68.9152 58.6422 73.7652 55.6488 76.7617C52.6547 79.7547 47.8027 79.7547 44.8129 76.7617C41.8195 73.7652 41.8195 68.9156 44.8129 65.9234C45.5302 65.2057 46.3827 64.6374 47.3211 64.2512V36.7957C46.3814 36.4121 45.5284 35.8434 44.8129 35.1234C42.5449 32.8586 41.9996 29.5309 43.1617 26.7461L31.8242 15.4074L1.88672 45.343C-0.628906 47.8598 -0.628906 51.9383 1.88672 54.4531L45.5484 98.1125C48.0621 100.627 52.1395 100.627 54.6562 98.1125L98.1137 54.6559C100.629 52.1402 100.629 48.0594 98.1141 45.5449Z"/>
    </symbol>

    <!-- hubspot icon -->
    <symbol id="hubspot" viewBox="0 0 24 24">
      <path fill="#FF5C35" d="M12 2C6.48 2 2 6.48 2 12s4.48 10 10 10 10-4.48 10-10S17.52 2 12 2m0 18c-4.42 0-8-3.58-8-8s3.58-8 8-8 8 3.58 8 8-3.58 8-8 8m3.5-9c.83 0 1.5-.67 1.5-1.5S16.33 8 15.5 8 14 8.67 14 9.5s.67 1.5 1.5 1.5zm-7 0c.83 0 1.5-.67 1.5-1.5S9.33 8 8.5 8 7 8.67 7 9.5 7.67 11 8.5 11zm3.5 6.5c2.33 0 4.31-1.46 5.11-3.5H6.89c.8 2.04 2.78 3.5 5.11 3.5z"/>
    </symbol>

    <!-- autocad icon -->
    <symbol id="autocad" viewBox="0 0 500 500">
      <rect x="90" y="90" width="280" height="360" fill="white"/>
      <path d="M0 0 C1.28836429 -0.00865438 2.57672858 -0.01730876 3.90413421 -0.02622539 C7.4601887 -0.04923157 11.01525086 -0.03507651 14.57128417 -0.01451623 C18.41390497 0.00116336 22.25637995 -0.01782533 26.09898376 -0.03231812 C33.61838978 -0.05511181 41.13742343 -0.04568734 48.65682191 -0.02481725 C54.7687898 -0.00851657 60.88065624 -0.00433776 66.99264336 -0.00878334 C68.29870775 -0.00972935 68.29870775 -0.00972935 69.63115729 -0.01069448 C71.40011266 -0.01204056 73.169068 -0.01342014 74.93802332 -0.01483283 C91.51471285 -0.02676198 108.09119849 -0.00272266 124.66784161 0.03418525 C138.88572452 0.0650825 153.10337284 0.0674457 167.3212738 0.04838562 C183.84118028 0.02626498 200.36095532 0.02013663 216.88086838 0.04070824 C218.64291917 0.04287113 220.40496997 0.04502023 222.1670208 0.04715538 C223.03393495 0.04822175 223.90084909 0.04928811 224.79403337 0.05038679 C230.89786501 0.0568514 237.00162892 0.05209582 243.1054554 0.04313087 C250.54508423 0.03258668 257.98443809 0.04012363 265.42401619 0.07058666 C269.21853454 0.08569713 273.01261918 0.09290288 276.80714989 0.07839584 C280.92277359 0.06294496 285.0372694 0.08632234 289.15283203 0.11352539 C290.94714239 0.09781816 290.94714239 0.09781816 292.77770144 0.08179361 C299.79934701 0.1683587 304.6114349 1.0903704 310.01292419 5.75517273 C311.85276794 7.85282898 311.85276794 7.85282898 312.95042419 9.81767273 C313.33069763 10.46864929 313.71097107 11.11962585 314.10276794 11.79032898 C315.84918914 15.56050006 316.13628772 18.94249354 316.12644958 23.07450867 C316.12637405 24.1353064 316.12629852 25.19610413 316.1262207 26.28904724 C316.12105942 27.4277124 316.11589813 28.56637756 316.11058044 29.73954773 C316.10845802 31.49564362 316.10845802 31.49564362 316.10629272 33.28721619 C316.10069509 37.02656102 316.08814299 40.76584599 316.07542419 44.50517273 C316.07040889 47.04032811 316.06584604 49.57548444 316.06175232 52.11064148 C316.05072643 58.32550566 316.03399063 64.54033492 316.01292419 70.75517273 C316.67292419 70.42517273 317.33292419 70.09517273 318.01292419 69.75517273 C319.51312935 69.6594457 321.01748193 69.62443205 322.52073669 69.62236023 C323.42565857 69.62107117 324.33058044 69.6197821 325.26292419 69.61845398 C326.21167419 69.62232117 327.16042419 69.62618835 328.13792419 69.63017273 C329.52624451 69.62437195 329.52624451 69.62437195 330.94261169 69.61845398 C332.31159607 69.62038757 332.31159607 69.62038757 333.70823669 69.62236023 C334.53339783 69.62348816 335.35855896 69.62461609 336.20872498 69.6257782 C339.82589897 69.79268593 343.41986341 70.30604013 347.01292419 70.75517273 C347.01292419 196.15517273 347.01292419 321.55517273 347.01292419 450.75517273 C285.48854919 450.89954773 223.96417419 451.04392273 160.57542419 451.19267273 C141.13193054 451.25640076 121.68843689 451.32012878 101.65574646 451.38578796 C77.9561615 451.41740417 77.9561615 451.41740417 66.86972046 451.42327881 C59.10829884 451.4298139 51.34722881 451.45552141 43.58590698 451.49420166 C34.63644213 451.5387374 25.68731519 451.5590296 16.73773867 451.54928738 C12.15879253 451.54506741 7.58060179 451.5517904 3.00179398 451.58967865 C-1.14013343 451.62374366 -5.28077143 451.62543997 -9.4227581 451.60148048 C-10.9187392 451.59851534 -12.41480117 451.60736704 -13.91062367 451.62935078 C-22.1026922 451.74265601 -27.99868352 451.28364148 -34.3114 445.56200463 C-40.66068484 438.71575769 -41.13823037 432.5700358 -41.1006012 423.55863953 C-41.10074722 422.64107376 -41.10089325 421.723508 -41.1010437 420.77813721 C-41.10034856 417.75353102 -41.09257478 414.72898687 -41.08473206 411.70439148 C-41.08286646 409.60403477 -41.08144323 407.50367762 -41.08044434 405.40332031 C-41.07663029 399.88120823 -41.06680949 394.35912254 -41.05574036 388.83702087 C-41.04550232 383.19971575 -41.04094159 377.56240635 -41.03590393 371.9250946 C-41.02518624 360.8684424 -41.00812316 349.81180976 -40.98707581 338.75517273 C-43.50614486 340.16384523 -46.02421527 341.57425516 -48.54176331 342.98564148 C-49.2451886 343.37876526 -49.94861389 343.77188904 -50.6733551 344.17692566 C-58.36436549 348.49231391 -65.96075166 352.98525576 -73.22926331 357.98564148 C-75.98707581 359.75517273 -75.98707581 359.75517273 -77.98707581 359.75517273 C-78.35338418 319.28704599 -78.6352724 278.8191355 -78.80412108 238.3496818 C-78.82413213 233.57078023 -78.84484131 228.79188193 -78.86598206 224.01298523 C-78.87017902 223.06160222 -78.87437599 222.11021921 -78.87870014 221.13000642 C-78.9483019 205.72975479 -79.07444195 190.33045983 -79.22152054 174.93077554 C-79.37120378 159.12643353 -79.4600278 143.32259212 -79.49249172 127.51757038 C-79.51443571 117.7661654 -79.58370135 108.01746419 -79.71373928 98.26689176 C-79.79839128 91.5783027 -79.82386292 84.89110882 -79.80309784 78.2020231 C-79.79285666 74.34282345 -79.80840784 70.4883414 -79.8943634 66.6299839 C-80.37269688 44.07145797 -80.37269688 44.07145797 -76.40722466 38.55899954 C-72.68581579 35.12307753 -68.59133799 33.11960219 -63.8476944 31.44727874 C-61.39166729 30.53369488 -59.32568168 29.20813311 -57.17066956 27.73173523 C-56.53193909 27.33083679 -55.89320862 26.92993835 -55.23512268 26.51689148 C-53.99231997 25.73662052 -52.75016619 24.95531529 -51.50856018 24.17314148 C-47.984042 21.96352577 -44.42821275 19.83588955 -40.80665588 17.78691101 C-37.39007409 15.84964083 -34.00192443 13.86372546 -30.61207581 11.88017273 C-29.90824768 11.47153992 -29.20441956 11.0629071 -28.47926331 10.64189148 C-27.77285706 10.22810242 -27.06645081 9.81431335 -26.33863831 9.38798523 C-25.65816089 8.99200475 -24.97768347 8.59602426 -24.27658552 8.18804437 C-21.98928292 6.81666745 -21.98928292 6.81666745 -20.04994541 5.21211118 C-13.55347389 0.15695656 -8.04402448 -0.09476811 0 0 Z M123.01292419 72.75517273 C121.69292419 77.37517273 120.37292419 81.99517273 119.01292419 86.75517273 C118.39417419 88.73517273 117.77542419 90.71517273 117.13792419 92.75517273 C114.98222623 99.68056462 113.1127464 106.677318 111.22434998 113.67900085 C109.62876353 119.57008721 107.91342834 125.40357628 106.07542419 131.22392273 C104.62565971 136.04225764 103.32305882 140.89729731 102.01292419 145.75517273 C100.16042537 152.62409166 98.21800893 159.43907106 96.07542419 166.22392273 C94.62565971 171.04225764 93.32305882 175.89729731 92.01292419 180.75517273 C90.16042537 187.62409166 88.21800893 194.43907106 86.07542419 201.22392273 C84.33839077 206.99700442 82.80174371 212.82463523 81.23484802 218.64579773 C79.55712497 224.84903547 77.76414913 230.98769697 75.77464294 237.09892273 C74.80918158 240.27540356 74.80918158 240.27540356 74.01292419 245.75517273 C87.54292419 245.75517273 101.07292419 245.75517273 115.01292419 245.75517273 C118.90959613 233.48625362 118.90959613 233.48625362 122.26292419 221.13017273 C122.57745544 219.8591571 122.89198669 218.58814148 123.21604919 217.27861023 C123.928672 214.1276996 124.48183482 210.94170896 125.01292419 207.75517273 C142.83292419 208.08517273 160.65292419 208.41517273 179.01292419 208.75517273 C180.99292419 216.01517273 182.97292419 223.27517273 185.01292419 230.75517273 C186.66292419 235.70517273 188.31292419 240.65517273 190.01292419 245.75517273 C203.87292419 245.75517273 217.73292419 245.75517273 232.01292419 245.75517273 C229.03981645 234.42937634 229.03981645 234.42937634 225.70042419 223.25517273 C225.27764645 221.92603246 224.85583468 220.59658468 224.43479919 219.26689148 C224.20985779 218.55710144 223.98491638 217.8473114 223.75315857 217.11601257 C221.99560143 211.51061102 220.3049195 205.88444235 218.59959412 200.26298523 C218.32220398 199.34903992 218.04481384 198.4350946 217.75901794 197.49345398 C217.47598816 196.56057556 217.19295837 195.62769714 216.90135193 194.66654968 C215.96858017 191.60985741 215.02186096 188.5576592 214.07542419 185.50517273 C212.02208816 178.83984954 210.07952398 172.14393122 208.15104675 165.44169617 C205.28739279 155.49679166 202.39487186 145.56768286 199.25901794 135.70439148 C197.29063653 129.50751378 195.42476211 123.27866556 193.53684998 117.05693054 C191.96173201 111.86779673 190.37376561 106.68331811 188.76292419 101.50517273 C187.60189311 97.75150019 186.52261674 93.98976117 185.51292419 90.19267273 C183.89214711 84.3173558 181.94026089 78.53718281 180.01292419 72.75517273 C161.20292419 72.75517273 142.39292419 72.75517273 123.01292419 72.75517273 Z M70.01292419 355.75517273 C65.38225269 363.52021033 64.79901287 369.96807852 64.77268982 378.93217468 C64.76304298 380.91821857 64.73186714 382.90411996 64.70042419 384.88993835 C64.66092177 394.61247311 65.51307525 401.83919059 72.26683044 409.21611023 C78.36323385 414.58967386 85.44517803 416.05943043 93.34886169 415.97782898 C99.17572895 415.49083274 105.44077275 413.43829473 110.01292419 409.75517273 C113.99250221 404.79447992 115.01292419 402.37564769 115.01292419 395.75517273 C110.72292419 395.75517273 106.43292419 395.75517273 102.01292419 395.75517273 C101.57979919 396.86892273 101.14667419 397.98267273 100.70042419 399.13017273 C99.01292419 402.75517273 99.01292419 402.75517273 96.01292419 404.75517273 C91.42021216 405.49482298 87.9883033 405.36478467 84.01292419 402.88017273 C80.54018806 399.19039059 80.86653872 396.09638092 80.88011169 391.26298523 C80.87915497 390.52063629 80.87819824 389.77828735 80.87721252 389.01344299 C80.87653154 387.4415122 80.87838013 385.8695786 80.8825531 384.2976532 C80.88788745 381.89670952 80.8826132 379.4959542 80.87620544 377.09501648 C80.87686654 375.56767232 80.87814834 374.04032827 80.88011169 372.51298523 C80.87808746 371.79619598 80.87606323 371.07940674 80.87397766 370.34089661 C80.9050974 363.68733793 80.9050974 363.68733793 82.01292419 360.75517273 C86.17655573 357.85268571 91.15234768 357.96867168 96.01292419 358.75517273 C99.35917444 361.28193312 100.69270267 362.79450815 102.01292419 366.75517273 C106.30292419 366.75517273 110.59292419 366.75517273 115.01292419 366.75517273 C115.01292419 359.72648934 113.58933983 357.66937142 109.01292419 352.75517273 C98.0036532 344.28650274 79.56964702 345.63628973 70.01292419 355.75517273 Z M140.01292419 349.75517273 C136.60025173 361.00601959 136.60025173 361.00601959 133.63792419 372.38017273 C132.18896355 378.42728017 130.30247797 384.32265822 128.45042419 390.25517273 C126.01031343 398.09870109 124.01973831 405.58879159 123.01292419 413.75517273 C127.30292419 413.75517273 131.59292419 413.75517273 136.01292419 413.75517273 C136.69354919 412.23923523 136.69354919 412.23923523 137.38792419 410.69267273 C137.64315857 410.12419617 137.89839294 409.5557196 138.16136169 408.97001648 C139.32079598 405.95442364 140.15355532 402.86758262 141.01292419 399.75517273 C144.13790483 399.72621297 147.26285109 399.7083879 150.38792419 399.69267273 C151.72210388 399.68010437 151.72210388 399.68010437 153.08323669 399.6672821 C154.35940857 399.66244812 154.35940857 399.66244812 155.66136169 399.65751648 C156.44688416 399.65227966 157.23240662 399.64704285 158.04173279 399.64164734 C160.01292419 399.75517273 160.01292419 399.75517273 162.01292419 400.75517273 C162.82933044 403.44267273 162.82933044 403.44267273 163.57542419 406.75517273 C164.16866204 410.56522946 164.16866204 410.56522946 166.01292419 413.75517273 C168.36605974 413.82789014 170.72126088 413.83888141 173.07542419 413.81767273 C174.36577576 413.80864929 175.65612732 413.79962585 176.98558044 413.79032898 C177.98460388 413.77872742 178.98362732 413.76712585 180.01292419 413.75517273 C179.39065879 408.1247954 177.97531141 403.06147497 176.20042419 397.69267273 C175.64946337 395.98872402 175.09999087 394.28429337 174.55198669 392.57939148 C174.28547302 391.75100769 174.01895935 390.9226239 173.74436951 390.06913757 C172.79444255 387.06399482 171.92559917 384.03992774 171.07542419 381.00517273 C169.23468007 374.46117137 167.2916664 367.95003367 165.32542419 361.44267273 C165.01548523 360.40852234 164.70554626 359.37437195 164.38621521 358.30888367 C164.09416199 357.34627625 163.80210876 356.38366882 163.50120544 355.39189148 C163.23863953 354.52266052 162.97607361 353.65342957 162.70555115 352.75785828 C162.18561958 350.78215186 162.18561958 350.78215186 161.01292419 349.75517273 C159.45119675 349.6683167 157.88563075 349.64815053 156.32151794 349.65751648 C155.37727966 349.66073914 154.43304138 349.66396179 153.46018982 349.6672821 C151.97035583 349.67985046 151.97035583 349.67985046 150.45042419 349.69267273 C149.45333435 349.69718445 148.45624451 349.70169617 147.42893982 349.7063446 C144.95687571 349.71817266 142.48492902 349.73465424 140.01292419 349.75517273 Z M191.01292419 349.75517273 C191.01292419 370.87517273 191.01292419 391.99517273 191.01292419 413.75517273 C212.56830985 415.20078004 212.56830985 415.20078004 232.38792419 408.56767273 C241.98456896 398.28555334 241.45205675 387.15437115 241.09739685 373.78398132 C240.77112301 365.94775115 238.59273342 360.38593912 233.01292419 354.75517273 C221.19888542 345.75152203 204.63825457 349.75517273 191.01292419 349.75517273 Z " fill="#E41050" transform="translate(114.98707580566406,24.244827270507813)"/>
      <path d="M0 0 C0.90169922 -0.00128906 1.80339844 -0.00257812 2.73242188 -0.00390625 C3.67279297 -0.00003906 4.61316406 0.00382812 5.58203125 0.0078125 C6.50306641 0.00394531 7.42410156 0.00007813 8.37304688 -0.00390625 C9.28119141 -0.00261719 10.18933594 -0.00132813 11.125 0 C11.94379639 0.00112793 12.76259277 0.00225586 13.60620117 0.00341797 C17.21807595 0.1710297 20.80669085 0.68433245 24.39453125 1.1328125 C24.39453125 126.5328125 24.39453125 251.9328125 24.39453125 381.1328125 C-37.12984375 381.2771875 -98.65421875 381.4215625 -162.04296875 381.5703125 C-181.4864624 381.63404053 -200.92995605 381.69776855 -220.96264648 381.76342773 C-244.66223145 381.79504395 -244.66223145 381.79504395 -255.74867249 381.80091858 C-263.51009411 381.80745367 -271.27116413 381.83316118 -279.03248596 381.87184143 C-287.98195082 381.91637717 -296.93107775 381.93666937 -305.88065428 381.92692715 C-310.45960041 381.92270718 -315.03779116 381.92943017 -319.61659896 381.96731842 C-323.75852637 382.00138343 -327.89916438 382.00307974 -332.04115105 381.97912025 C-333.53713214 381.97615511 -335.03319411 381.98500681 -336.52901661 382.00699055 C-344.72108515 382.12029578 -350.61707646 381.66128125 -356.92979294 375.9396444 C-363.27978914 369.09263043 -363.75302326 362.86027715 -363.84594727 353.84790039 C-363.85894363 352.92046524 -363.87194 351.99303009 -363.8853302 351.03749084 C-364.01161468 341.38201478 -364.0686877 331.72569529 -364.12036133 322.06958008 C-364.1471654 317.48803854 -364.19598908 312.907529 -364.26391602 308.32641602 C-364.34578999 302.78975771 -364.38853128 297.25408676 -364.40342522 291.716856 C-364.41567912 289.6088358 -364.44172603 287.50084859 -364.48187447 285.39317513 C-364.53527766 282.4433112 -364.53835029 279.49736324 -364.52954102 276.54711914 C-364.55673218 275.67887512 -364.58392334 274.8106311 -364.61193848 273.91607666 C-364.55562386 270.25553514 -364.44961936 268.03618564 -361.88767815 265.29450798 C-359.85438891 263.74351726 -357.8188716 262.41073625 -355.60546875 261.1328125 C-355.00265359 260.76309861 -354.39983843 260.39338472 -353.77875614 260.01246738 C-352.07694314 258.99300836 -350.34120167 258.03088287 -348.60546875 257.0703125 C-347.47109375 256.43996094 -346.33671875 255.80960938 -345.16796875 255.16015625 C-344.28475 254.67939441 -344.28475 254.67939441 -343.38368845 254.1889202 C-341.5812231 253.16898921 -341.5812231 253.16898921 -339.97649145 251.8622182 C-333.75589774 247.20205068 -327.81184076 247.44329203 -320.26721191 247.53153992 C-318.91561743 247.52935716 -317.56402502 247.52497487 -316.21244383 247.51859409 C-312.51333191 247.50745092 -308.8149483 247.52736149 -305.11592913 247.55248439 C-301.12148663 247.5741245 -297.12708352 247.56676647 -293.13259888 247.56297302 C-286.21688649 247.56035427 -279.3014104 247.57601012 -272.38575745 247.60416222 C-262.38698873 247.64483845 -252.38833399 247.65782365 -242.3894915 247.66410217 C-226.16617179 247.67503889 -209.94297795 247.70829618 -193.71972656 247.75561523 C-177.9625714 247.80152694 -162.20545062 247.83685362 -146.44824219 247.8581543 C-144.97589918 247.86016428 -144.97589918 247.86016428 -143.47381186 247.86221486 C-135.79708159 247.87261229 -128.12035057 247.8823968 -120.44361925 247.89198768 C-82.83078688 247.93913594 -45.21826968 248.03973199 -7.60546875 248.1328125 C-7.60546875 166.6228125 -7.60546875 85.1128125 -7.60546875 1.1328125 C-4.75236697 0.18177857 -2.959745 0.00410546 0 0 Z M-252.60546875 286.1328125 C-257.23614026 293.8978501 -257.81938007 300.34571829 -257.84570312 309.30981445 C-257.85534997 311.29585834 -257.88652581 313.28175973 -257.91796875 315.26757812 C-257.95747118 324.99011288 -257.1053177 332.21683036 -250.3515625 339.59375 C-244.25515909 344.96731363 -237.17321491 346.4370702 -229.26953125 346.35546875 C-223.442664 345.86847251 -217.1776202 343.8159345 -212.60546875 340.1328125 C-208.62589074 335.17211969 -207.60546875 332.75328746 -207.60546875 326.1328125 C-211.89546875 326.1328125 -216.18546875 326.1328125 -220.60546875 326.1328125 C-221.03859375 327.2465625 -221.47171875 328.3603125 -221.91796875 329.5078125 C-223.60546875 333.1328125 -223.60546875 333.1328125 -226.60546875 335.1328125 C-231.19818078 335.87246275 -234.63008964 335.74242444 -238.60546875 333.2578125 C-242.07820488 329.56803036 -241.75185422 326.47402069 -241.73828125 321.640625 C-241.73923798 320.89827606 -241.7401947 320.15592712 -241.74118042 319.39108276 C-241.7418614 317.81915197 -241.74001281 316.24721837 -241.73583984 314.67529297 C-241.73050549 312.27434929 -241.73577974 309.87359397 -241.7421875 307.47265625 C-241.74152641 305.94531209 -241.7402446 304.41796804 -241.73828125 302.890625 C-241.74030548 302.17383575 -241.74232971 301.45704651 -241.74441528 300.71853638 C-241.71329555 294.0649777 -241.71329555 294.0649777 -240.60546875 291.1328125 C-236.44183721 288.23032548 -231.46604526 288.34631145 -226.60546875 289.1328125 C-223.25921851 291.65957289 -221.92569028 293.17214792 -220.60546875 297.1328125 C-216.31546875 297.1328125 -212.02546875 297.1328125 -207.60546875 297.1328125 C-207.60546875 290.10412911 -209.02905312 288.04701119 -213.60546875 283.1328125 C-224.61473974 274.66414251 -243.04874592 276.0139295 -252.60546875 286.1328125 Z M-182.60546875 280.1328125 C-186.01814122 291.38365936 -186.01814122 291.38365936 -188.98046875 302.7578125 C-190.4294294 308.80491994 -192.31591497 314.70029799 -194.16796875 320.6328125 C-196.60807952 328.47634086 -198.59865464 335.96643136 -199.60546875 344.1328125 C-195.31546875 344.1328125 -191.02546875 344.1328125 -186.60546875 344.1328125 C-185.92484375 342.616875 -185.92484375 342.616875 -185.23046875 341.0703125 C-184.97523438 340.50183594 -184.72 339.93335938 -184.45703125 339.34765625 C-183.29759697 336.33206341 -182.46483763 333.2452224 -181.60546875 330.1328125 C-178.48048812 330.10385274 -175.35554185 330.08602767 -172.23046875 330.0703125 C-170.89628906 330.05774414 -170.89628906 330.05774414 -169.53515625 330.04492188 C-168.25898438 330.04008789 -168.25898438 330.04008789 -166.95703125 330.03515625 C-166.17150879 330.02991943 -165.38598633 330.02468262 -164.57666016 330.01928711 C-162.60546875 330.1328125 -162.60546875 330.1328125 -160.60546875 331.1328125 C-159.7890625 333.8203125 -159.7890625 333.8203125 -159.04296875 337.1328125 C-158.44973091 340.94286923 -158.44973091 340.94286923 -156.60546875 344.1328125 C-154.2523332 344.20552991 -151.89713207 344.21652118 -149.54296875 344.1953125 C-148.25261719 344.18628906 -146.96226562 344.17726563 -145.6328125 344.16796875 C-144.63378906 344.15636719 -143.63476562 344.14476562 -142.60546875 344.1328125 C-143.22773415 338.50243517 -144.64308153 333.43911474 -146.41796875 328.0703125 C-146.96892957 326.36636379 -147.51840207 324.66193314 -148.06640625 322.95703125 C-148.33291992 322.12864746 -148.59943359 321.30026367 -148.87402344 320.44677734 C-149.82395039 317.44163459 -150.69279378 314.41756751 -151.54296875 311.3828125 C-153.38371287 304.83881114 -155.32672655 298.32767344 -157.29296875 291.8203125 C-157.60290771 290.78616211 -157.91284668 289.75201172 -158.23217773 288.68652344 C-158.52423096 287.72391602 -158.81628418 286.76130859 -159.1171875 285.76953125 C-159.37975342 284.90030029 -159.64231934 284.03106934 -159.9128418 283.13549805 C-160.43277336 281.15979163 -160.43277336 281.15979163 -161.60546875 280.1328125 C-163.1671962 280.04595647 -164.73276219 280.02579031 -166.296875 280.03515625 C-167.24111328 280.03837891 -168.18535156 280.04160156 -169.15820312 280.04492188 C-170.64803711 280.05749023 -170.64803711 280.05749023 -172.16796875 280.0703125 C-173.16505859 280.07482422 -174.16214844 280.07933594 -175.18945312 280.08398438 C-177.66151724 280.09581243 -180.13346393 280.11229401 -182.60546875 280.1328125 Z M-131.60546875 280.1328125 C-131.60546875 301.2528125 -131.60546875 322.3728125 -131.60546875 344.1328125 C-110.05008309 345.57841981 -110.05008309 345.57841981 -90.23046875 338.9453125 C-80.63382398 328.66319311 -81.1663362 317.53201092 -81.52099609 304.16162109 C-81.84726994 296.32539093 -84.02565953 290.76357889 -89.60546875 285.1328125 C-101.41950753 276.1291618 -117.98013837 280.1328125 -131.60546875 280.1328125 Z " fill="#770929" transform="translate(437.60546875,93.8671875)"/>
      <path d="M0 0 C0.43505921 40.06876543 0.76976678 80.13722261 0.97024126 120.20787879 C0.99400418 124.94042891 1.01859635 129.67297439 1.04370117 134.40551758 C1.05117702 135.81874086 1.05117702 135.81874086 1.05880389 137.2605141 C1.14144063 152.50834277 1.29122189 167.75480794 1.46590313 183.00182817 C1.64369778 198.65133789 1.74913957 214.30013451 1.7876814 229.95061272 C1.81373171 239.60578129 1.89592884 249.25709639 2.05041287 258.91107818 C2.15099606 265.5348578 2.18117312 272.15665136 2.15652617 278.78113887 C2.14437105 282.6027691 2.16271856 286.41768149 2.26490402 290.23810959 C2.83265686 312.54572085 2.83265686 312.54572085 -1.86450362 318.27366614 C-6.35872439 321.99315477 -11.26766589 324.20230571 -16.73179281 326.13732851 C-19.9400378 327.35752634 -22.57763355 329.04851913 -25.4375 330.9375 C-26.64212891 331.69353516 -26.64212891 331.69353516 -27.87109375 332.46484375 C-30.05339103 333.93766778 -30.05339103 333.93766778 -31.80078125 335.90234375 C-34.79607092 338.75930743 -38.1611977 340.59519123 -41.75 342.625 C-48.60981658 346.56941319 -55.34452955 350.66646498 -61.99707031 354.95166016 C-66.78749402 358 -66.78749402 358 -69 358 C-69.36630838 317.53187326 -69.64819659 277.06396277 -69.81704527 236.59450907 C-69.83705632 231.8156075 -69.8577655 227.0367092 -69.87890625 222.2578125 C-69.88310322 221.30642949 -69.88730018 220.35504648 -69.89162433 219.37483369 C-69.96122609 203.97458207 -70.08736614 188.5752871 -70.23444474 173.17560281 C-70.38412797 157.3712608 -70.47295199 141.56741939 -70.50541592 125.76239765 C-70.5273599 116.01099267 -70.59662554 106.26229146 -70.72666347 96.51171903 C-70.81131547 89.82312997 -70.83678711 83.13593609 -70.81602204 76.44685037 C-70.80578085 72.58765072 -70.82133204 68.73316867 -70.9072876 64.87481117 C-71.38562108 42.31628524 -71.38562108 42.31628524 -67.42014885 36.80382681 C-63.69873998 33.3679048 -59.60426218 31.36442946 -54.86061859 29.69210601 C-52.40459148 28.77852215 -50.33860587 27.45296038 -48.18359375 25.9765625 C-47.54486328 25.57566406 -46.90613281 25.17476562 -46.24804688 24.76171875 C-45.00524416 23.98144779 -43.76309038 23.20014256 -42.52148438 22.41796875 C-38.9969662 20.20835304 -35.44113694 18.08071682 -31.81958008 16.03173828 C-28.40300949 14.09447446 -25.01442881 12.10925115 -21.625 10.125 C-20.87839111 9.68953857 -20.13178223 9.25407715 -19.36254883 8.80541992 C-14.65862713 6.04127032 -10.12575594 3.14737415 -5.76171875 -0.13671875 C-3.46132611 -1.26396215 -2.39363682 -0.70160986 0 0 Z " fill="#E75983" transform="translate(106,26)"/>
      <path d="M0 0 C0.99 0 1.98 0 3 0 C4.39939702 3.99572512 5.47465359 7.91438926 6.3125 12.0625 C7.54389594 17.93766772 8.86072713 23.78515585 10.25 29.625 C10.45496094 30.48963867 10.65992188 31.35427734 10.87109375 32.24511719 C12.15422145 37.60866736 13.49695047 42.95400594 14.87890625 48.29296875 C15.19891602 49.53933105 15.51892578 50.78569336 15.84863281 52.06982422 C16.47902158 54.51761038 17.11737467 56.9633628 17.76464844 59.40673828 C18.05500977 60.53708496 18.34537109 61.66743164 18.64453125 62.83203125 C18.90596924 63.82952393 19.16740723 64.8270166 19.43676758 65.85473633 C20 69 20 69 20 77 C7.79 77 -4.42 77 -17 77 C-15.26049526 63.08396208 -12.01638642 49.58154758 -8.71777344 35.96826172 C-7.94509349 32.77294104 -7.17894206 29.57610283 -6.4140625 26.37890625 C-1.99292687 7.90559143 -1.99292687 7.90559143 0 0 Z " fill="#E21452" transform="translate(265,125)"/>
      <path d="M0 0 C3.12800396 2.73700346 3.8941493 5.61274012 4.2746582 9.70092773 C4.3029083 13.19681091 4.32174382 16.69148645 4.3125 20.1875 C4.32861328 21.40244141 4.34472656 22.61738281 4.36132812 23.86914062 C4.36197266 25.04541016 4.36261719 26.22167969 4.36328125 27.43359375 C4.36626221 28.50150146 4.36924316 29.56940918 4.37231445 30.66967773 C3.92921371 34.33564635 2.99161053 36.64237036 1 39.75 C-4 42.75 -4 42.75 -17 42.75 C-17 28.23 -17 13.71 -17 -1.25 C-11.13982783 -2.71504304 -5.60133146 -2.33388811 0 0 Z " fill="#7C1734" transform="translate(337,385.25)"/>
      <path d="M0 0 C0.66 0.99 1.32 1.98 2 3 C4.39574591 3.45800286 4.39574591 3.45800286 7.24365425 3.38476086 C8.92165727 3.39894567 8.92165727 3.39894567 10.63355935 3.41341704 C11.87283712 3.40856947 13.11211489 3.40372189 14.38894653 3.39872742 C15.69739214 3.40537424 17.00583774 3.41202107 18.35393322 3.41886932 C21.99797428 3.43697696 25.64181244 3.43632759 29.28588796 3.43273985 C33.21094038 3.43211825 37.13592337 3.4487149 41.0609436 3.46325684 C47.8653527 3.48609299 54.66971043 3.49793656 61.47415543 3.50238609 C71.31231567 3.5088352 81.15038287 3.53175063 90.98850571 3.55872939 C106.94886704 3.60204778 122.90922447 3.63198563 138.86962891 3.65356445 C154.37680991 3.67455903 169.88395892 3.7018208 185.39111328 3.73754883 C186.82408299 3.74084707 186.82408299 3.74084707 188.28600158 3.74421193 C193.07836335 3.75528121 197.87072483 3.76647409 202.66308618 3.77772844 C242.44202957 3.87098503 282.22098972 3.94254981 322 4 C322.33 2.68 322.66 1.36 323 0 C323 1.98 323 3.96 323 6 C216.08 6 109.16 6 -1 6 C-0.67 4.02 -0.34 2.04 0 0 Z " fill="#C10E45" transform="translate(107,336)"/>
      <path d="M0 0 C37.69983308 -0.11444894 75.39963998 -0.20255067 113.09961164 -0.25532665 C117.55062028 -0.26158017 122.00162859 -0.26805178 126.45263672 -0.2746582 C127.33875082 -0.27596976 128.22486493 -0.27728131 129.13783097 -0.2786326 C143.48493513 -0.30038807 157.83193909 -0.33981037 172.17898381 -0.38576398 C186.90081774 -0.43252471 201.62259921 -0.46029458 216.34450436 -0.47044247 C225.42846443 -0.47730244 234.5121413 -0.49896737 243.5960142 -0.53958233 C249.82551325 -0.56601597 256.05486592 -0.5739996 262.28441697 -0.56750689 C265.8784252 -0.56430491 269.47193863 -0.56920644 273.06585884 -0.59602737 C276.96498684 -0.62491308 280.86347203 -0.61493057 284.76269531 -0.60127258 C285.89500422 -0.61583679 287.02731314 -0.630401 288.19393444 -0.64540654 C294.93429736 -0.58153016 299.91851572 0.31762011 305 5 C307 8.3125 307 8.3125 308 11 C306.515 11.495 306.515 11.495 305 12 C304.5359375 10.824375 304.5359375 10.824375 304.0625 9.625 C301.39761046 6.23332241 299.36597575 6.02012074 295.25390625 5.26171875 C292.71595792 4.92310477 292.71595792 4.92310477 289 5 C289.33 3.68 289.66 2.36 290 1 C194.3 1 98.6 1 0 1 C0 0.67 0 0.34 0 0 Z " fill="#DF1C56" transform="translate(120,25)"/>
      <path d="M0 0 C0.66 0 1.32 0 2 0 C5.53914665 9.77478599 7.53129109 19.71903766 9 30 C3.72 30 -1.56 30 -7 30 C-5.68257895 19.58039716 -3.13694102 9.99750286 0 0 Z " fill="#6E0B29" transform="translate(265,383)"/>
      <path d="M0 0 C0.99 0 1.98 0 3 0 C4.90178135 5.41024004 6.10435362 10.83263677 7.26171875 16.44140625 C7.71828397 18.64209894 8.195874 20.838687 8.70703125 23.02734375 C8.90683594 23.90519531 9.10664063 24.78304687 9.3125 25.6875 C9.49425781 26.45449219 9.67601562 27.22148437 9.86328125 28.01171875 C10 30 10 30 8 33 C7.71125 31.7625 7.4225 30.525 7.125 29.25 C6.38067786 26.28843656 5.66241951 23.59753049 4 21 C3.34 20.67 2.68 20.34 2 20 C1.9175 20.598125 1.835 21.19625 1.75 21.8125 C1 24 1 24 -1.0625 25.375 C-1.701875 25.91125 -2.34125 26.4475 -3 27 C-3.25005386 30.04182893 -3.25005386 30.04182893 -3 33 C-3.33 33.66 -3.66 34.32 -4 35 C-4.66 35 -5.32 35 -6 35 C-6.433125 36.7015625 -6.433125 36.7015625 -6.875 38.4375 C-7.24625 39.613125 -7.6175 40.78875 -8 42 C-8.99 42.495 -8.99 42.495 -10 43 C-8.55319687 35.40215592 -6.82459978 27.89018326 -5 20.375 C-4.60941406 18.75464844 -4.60941406 18.75464844 -4.2109375 17.1015625 C-2.83288405 11.39447246 -1.43368044 5.6933656 0 0 Z " fill="#DE275E" transform="translate(265,125)"/>
      <path d="M0 0 C0.66 0 1.32 0 2 0 C2.66 2.31 3.32 4.62 4 7 C3.01 7 2.02 7 1 7 C0.67 4.98 0.34 2.99 0 1 C0 0.67 0 0.34 0 0 Z " fill="#D16384" transform="translate(265,125)"/>
      <path fill="#DB7797" d="M0 0 C0.66 0 1.32 0 2 0 C2 1.98 2 3.96 2 6 C-5 6 -5 6 -13 6 C-13 4.01 -13 2.02 -13 0 C-11.92 0 -10.84 0 -9 0 C-6 0 -3 0 0 0 Z " transform="translate(345,261)"/>
    </symbol>
  </defs>
</svg>